<mxfile host="app.diagrams.net" agent="Mozilla/5.0 (Windows NT 10.0; Win64; x64) AppleWebKit/537.36 (KHTML, like Gecko) Chrome/133.0.0.0 Safari/537.36 Edg/133.0.0.0" version="26.0.16">
  <diagram name="Page-1" id="uNa34eamBxUhBjuq83CT">
    <mxGraphModel dx="1010" dy="539" grid="1" gridSize="10" guides="1" tooltips="1" connect="1" arrows="1" fold="1" page="1" pageScale="1" pageWidth="850" pageHeight="1100" math="0" shadow="0">
      <root>
        <mxCell id="0" />
        <mxCell id="1" parent="0" />
        <mxCell id="vX_HHmugAZJZpFW1pDLi-57" value="&lt;b&gt;Tạo ca điểm danh&lt;/b&gt;" style="shape=umlFrame;whiteSpace=wrap;html=1;pointerEvents=0;width=160;height=30;swimlaneFillColor=default;" vertex="1" parent="1">
          <mxGeometry x="130" y="90" width="530" height="880" as="geometry" />
        </mxCell>
        <mxCell id="vX_HHmugAZJZpFW1pDLi-1" value=":Giảng viên" style="shape=umlLifeline;perimeter=lifelinePerimeter;whiteSpace=wrap;html=1;container=1;dropTarget=0;collapsible=0;recursiveResize=0;outlineConnect=0;portConstraint=eastwest;newEdgeStyle={&quot;curved&quot;:0,&quot;rounded&quot;:0};" vertex="1" parent="1">
          <mxGeometry x="170" y="140" width="100" height="830" as="geometry" />
        </mxCell>
        <mxCell id="vX_HHmugAZJZpFW1pDLi-3" value="" style="html=1;points=[[0,0,0,0,5],[0,1,0,0,-5],[1,0,0,0,5],[1,1,0,0,-5]];perimeter=orthogonalPerimeter;outlineConnect=0;targetShapes=umlLifeline;portConstraint=eastwest;newEdgeStyle={&quot;curved&quot;:0,&quot;rounded&quot;:0};" vertex="1" parent="vX_HHmugAZJZpFW1pDLi-1">
          <mxGeometry x="45" y="80" width="10" height="720" as="geometry" />
        </mxCell>
        <mxCell id="vX_HHmugAZJZpFW1pDLi-2" value=":Hệ thống&amp;nbsp;&lt;div&gt;Canvas&lt;/div&gt;" style="shape=umlLifeline;perimeter=lifelinePerimeter;whiteSpace=wrap;html=1;container=1;dropTarget=0;collapsible=0;recursiveResize=0;outlineConnect=0;portConstraint=eastwest;newEdgeStyle={&quot;curved&quot;:0,&quot;rounded&quot;:0};" vertex="1" parent="1">
          <mxGeometry x="480" y="140" width="100" height="830" as="geometry" />
        </mxCell>
        <mxCell id="vX_HHmugAZJZpFW1pDLi-10" value="" style="html=1;points=[[0,0,0,0,5],[0,1,0,0,-5],[1,0,0,0,5],[1,1,0,0,-5]];perimeter=orthogonalPerimeter;outlineConnect=0;targetShapes=umlLifeline;portConstraint=eastwest;newEdgeStyle={&quot;curved&quot;:0,&quot;rounded&quot;:0};" vertex="1" parent="vX_HHmugAZJZpFW1pDLi-2">
          <mxGeometry x="45" y="170" width="10" height="80" as="geometry" />
        </mxCell>
        <mxCell id="vX_HHmugAZJZpFW1pDLi-22" value="" style="html=1;points=[[0,0,0,0,5],[0,1,0,0,-5],[1,0,0,0,5],[1,1,0,0,-5]];perimeter=orthogonalPerimeter;outlineConnect=0;targetShapes=umlLifeline;portConstraint=eastwest;newEdgeStyle={&quot;curved&quot;:0,&quot;rounded&quot;:0};" vertex="1" parent="vX_HHmugAZJZpFW1pDLi-2">
          <mxGeometry x="45" y="380" width="10" height="30" as="geometry" />
        </mxCell>
        <mxCell id="vX_HHmugAZJZpFW1pDLi-36" value="" style="html=1;points=[[0,0,0,0,5],[0,1,0,0,-5],[1,0,0,0,5],[1,1,0,0,-5]];perimeter=orthogonalPerimeter;outlineConnect=0;targetShapes=umlLifeline;portConstraint=eastwest;newEdgeStyle={&quot;curved&quot;:0,&quot;rounded&quot;:0};" vertex="1" parent="vX_HHmugAZJZpFW1pDLi-2">
          <mxGeometry x="45" y="510" width="10" height="30" as="geometry" />
        </mxCell>
        <mxCell id="vX_HHmugAZJZpFW1pDLi-45" value="" style="html=1;points=[[0,0,0,0,5],[0,1,0,0,-5],[1,0,0,0,5],[1,1,0,0,-5]];perimeter=orthogonalPerimeter;outlineConnect=0;targetShapes=umlLifeline;portConstraint=eastwest;newEdgeStyle={&quot;curved&quot;:0,&quot;rounded&quot;:0};" vertex="1" parent="vX_HHmugAZJZpFW1pDLi-2">
          <mxGeometry x="45" y="570" width="10" height="30" as="geometry" />
        </mxCell>
        <mxCell id="vX_HHmugAZJZpFW1pDLi-54" value="" style="html=1;points=[[0,0,0,0,5],[0,1,0,0,-5],[1,0,0,0,5],[1,1,0,0,-5]];perimeter=orthogonalPerimeter;outlineConnect=0;targetShapes=umlLifeline;portConstraint=eastwest;newEdgeStyle={&quot;curved&quot;:0,&quot;rounded&quot;:0};" vertex="1" parent="vX_HHmugAZJZpFW1pDLi-2">
          <mxGeometry x="45" y="770" width="10" height="30" as="geometry" />
        </mxCell>
        <mxCell id="vX_HHmugAZJZpFW1pDLi-5" value="" style="html=1;verticalAlign=bottom;endArrow=block;curved=0;rounded=0;" edge="1" parent="1" source="vX_HHmugAZJZpFW1pDLi-4" target="vX_HHmugAZJZpFW1pDLi-2">
          <mxGeometry width="80" relative="1" as="geometry">
            <mxPoint x="220" y="220" as="sourcePoint" />
            <mxPoint x="300" y="220" as="targetPoint" />
          </mxGeometry>
        </mxCell>
        <mxCell id="vX_HHmugAZJZpFW1pDLi-7" value="" style="html=1;verticalAlign=bottom;endArrow=block;curved=0;rounded=0;" edge="1" parent="1" target="vX_HHmugAZJZpFW1pDLi-4">
          <mxGeometry width="80" relative="1" as="geometry">
            <mxPoint x="220" y="220" as="sourcePoint" />
            <mxPoint x="530" y="220" as="targetPoint" />
          </mxGeometry>
        </mxCell>
        <mxCell id="vX_HHmugAZJZpFW1pDLi-8" value="5.1. Chọn tạo điểm danh" style="edgeLabel;html=1;align=center;verticalAlign=middle;resizable=0;points=[];" vertex="1" connectable="0" parent="vX_HHmugAZJZpFW1pDLi-7">
          <mxGeometry x="-0.0458" y="1" relative="1" as="geometry">
            <mxPoint y="-7" as="offset" />
          </mxGeometry>
        </mxCell>
        <mxCell id="vX_HHmugAZJZpFW1pDLi-4" value="" style="html=1;points=[[0,0,0,0,5],[0,1,0,0,-5],[1,0,0,0,5],[1,1,0,0,-5]];perimeter=orthogonalPerimeter;outlineConnect=0;targetShapes=umlLifeline;portConstraint=eastwest;newEdgeStyle={&quot;curved&quot;:0,&quot;rounded&quot;:0};" vertex="1" parent="1">
          <mxGeometry x="525" y="220" width="10" height="50" as="geometry" />
        </mxCell>
        <mxCell id="vX_HHmugAZJZpFW1pDLi-9" value="5.2. Hiện 3 phương thức" style="html=1;verticalAlign=bottom;endArrow=open;dashed=1;endSize=8;curved=0;rounded=0;" edge="1" parent="1" source="vX_HHmugAZJZpFW1pDLi-2">
          <mxGeometry relative="1" as="geometry">
            <mxPoint x="305" y="270" as="sourcePoint" />
            <mxPoint x="225" y="270" as="targetPoint" />
          </mxGeometry>
        </mxCell>
        <mxCell id="vX_HHmugAZJZpFW1pDLi-11" value="0" style="html=1;verticalAlign=bottom;endArrow=block;curved=0;rounded=0;" edge="1" parent="1" target="vX_HHmugAZJZpFW1pDLi-10">
          <mxGeometry width="80" relative="1" as="geometry">
            <mxPoint x="225" y="310" as="sourcePoint" />
            <mxPoint x="520" y="310" as="targetPoint" />
          </mxGeometry>
        </mxCell>
        <mxCell id="vX_HHmugAZJZpFW1pDLi-12" value="5.3. Chọn phương thức điểm danh" style="edgeLabel;html=1;align=center;verticalAlign=middle;resizable=0;points=[];" vertex="1" connectable="0" parent="vX_HHmugAZJZpFW1pDLi-11">
          <mxGeometry x="-0.0458" y="1" relative="1" as="geometry">
            <mxPoint y="-7" as="offset" />
          </mxGeometry>
        </mxCell>
        <mxCell id="vX_HHmugAZJZpFW1pDLi-13" value="0" style="html=1;verticalAlign=bottom;endArrow=block;curved=0;rounded=0;" edge="1" parent="1">
          <mxGeometry width="80" relative="1" as="geometry">
            <mxPoint x="225" y="344" as="sourcePoint" />
            <mxPoint x="525" y="344" as="targetPoint" />
          </mxGeometry>
        </mxCell>
        <mxCell id="vX_HHmugAZJZpFW1pDLi-14" value="5.4. Thiết lập thời gian hiệu lực" style="edgeLabel;html=1;align=center;verticalAlign=middle;resizable=0;points=[];" vertex="1" connectable="0" parent="vX_HHmugAZJZpFW1pDLi-13">
          <mxGeometry x="-0.0458" y="1" relative="1" as="geometry">
            <mxPoint y="-7" as="offset" />
          </mxGeometry>
        </mxCell>
        <mxCell id="vX_HHmugAZJZpFW1pDLi-18" value="&lt;b&gt;alt&lt;/b&gt;" style="shape=umlFrame;whiteSpace=wrap;html=1;pointerEvents=0;" vertex="1" parent="1">
          <mxGeometry x="170" y="423" width="450" height="147" as="geometry" />
        </mxCell>
        <mxCell id="vX_HHmugAZJZpFW1pDLi-19" value="" style="html=1;points=[[0,0,0,0,5],[0,1,0,0,-5],[1,0,0,0,5],[1,1,0,0,-5]];perimeter=orthogonalPerimeter;outlineConnect=0;targetShapes=umlLifeline;portConstraint=eastwest;newEdgeStyle={&quot;curved&quot;:0,&quot;rounded&quot;:0};" vertex="1" parent="1">
          <mxGeometry x="525" y="455" width="10" height="30" as="geometry" />
        </mxCell>
        <mxCell id="vX_HHmugAZJZpFW1pDLi-20" value="0" style="html=1;verticalAlign=bottom;endArrow=none;curved=0;rounded=0;startFill=1;startArrow=block;" edge="1" parent="1">
          <mxGeometry width="80" relative="1" as="geometry">
            <mxPoint x="225" y="485" as="sourcePoint" />
            <mxPoint x="525" y="485" as="targetPoint" />
          </mxGeometry>
        </mxCell>
        <mxCell id="vX_HHmugAZJZpFW1pDLi-21" value="Thông báo lỗi tạo QR" style="edgeLabel;html=1;align=center;verticalAlign=middle;resizable=0;points=[];" vertex="1" connectable="0" parent="vX_HHmugAZJZpFW1pDLi-20">
          <mxGeometry x="-0.0458" y="1" relative="1" as="geometry">
            <mxPoint y="-7" as="offset" />
          </mxGeometry>
        </mxCell>
        <mxCell id="vX_HHmugAZJZpFW1pDLi-25" value="0" style="html=1;verticalAlign=bottom;endArrow=none;curved=0;rounded=0;startFill=1;startArrow=block;" edge="1" parent="1">
          <mxGeometry width="80" relative="1" as="geometry">
            <mxPoint x="225" y="550" as="sourcePoint" />
            <mxPoint x="525" y="550" as="targetPoint" />
          </mxGeometry>
        </mxCell>
        <mxCell id="vX_HHmugAZJZpFW1pDLi-26" value="Hiển thị mã QR" style="edgeLabel;html=1;align=center;verticalAlign=middle;resizable=0;points=[];" vertex="1" connectable="0" parent="vX_HHmugAZJZpFW1pDLi-25">
          <mxGeometry x="-0.0458" y="1" relative="1" as="geometry">
            <mxPoint y="-7" as="offset" />
          </mxGeometry>
        </mxCell>
        <mxCell id="vX_HHmugAZJZpFW1pDLi-29" value="" style="html=1;verticalAlign=bottom;endArrow=block;curved=0;rounded=0;" edge="1" parent="1" source="vX_HHmugAZJZpFW1pDLi-10">
          <mxGeometry width="80" relative="1" as="geometry">
            <mxPoint x="539.74" y="360" as="sourcePoint" />
            <mxPoint x="535.0019047619047" y="380" as="targetPoint" />
            <Array as="points">
              <mxPoint x="564.74" y="360" />
              <mxPoint x="564.74" y="370" />
              <mxPoint x="564.74" y="380" />
              <mxPoint x="539.74" y="380" />
            </Array>
          </mxGeometry>
        </mxCell>
        <mxCell id="vX_HHmugAZJZpFW1pDLi-31" value="5.5. Ghi nhận PT&amp;nbsp;&lt;div&gt;được chọn&lt;/div&gt;" style="edgeLabel;html=1;align=center;verticalAlign=middle;resizable=0;points=[];" vertex="1" connectable="0" parent="vX_HHmugAZJZpFW1pDLi-29">
          <mxGeometry x="0.0639" y="1" relative="1" as="geometry">
            <mxPoint x="44" y="-3" as="offset" />
          </mxGeometry>
        </mxCell>
        <mxCell id="vX_HHmugAZJZpFW1pDLi-33" value="" style="html=1;verticalAlign=bottom;endArrow=none;dashed=1;endSize=8;curved=0;rounded=0;exitX=1.002;exitY=0.587;exitDx=0;exitDy=0;exitPerimeter=0;startFill=0;" edge="1" parent="1" source="vX_HHmugAZJZpFW1pDLi-18">
          <mxGeometry relative="1" as="geometry">
            <mxPoint x="475" y="510" as="sourcePoint" />
            <mxPoint x="170" y="510" as="targetPoint" />
          </mxGeometry>
        </mxCell>
        <mxCell id="vX_HHmugAZJZpFW1pDLi-34" value="&lt;font style=&quot;font-size: 11px;&quot;&gt;Điểm danh bằng mã QR&lt;/font&gt;" style="text;html=1;align=center;verticalAlign=middle;resizable=0;points=[];autosize=1;strokeColor=none;fillColor=none;" vertex="1" parent="1">
          <mxGeometry x="226" y="423" width="140" height="30" as="geometry" />
        </mxCell>
        <mxCell id="vX_HHmugAZJZpFW1pDLi-35" value="&lt;b&gt;alt&lt;/b&gt;" style="shape=umlFrame;whiteSpace=wrap;html=1;pointerEvents=0;" vertex="1" parent="1">
          <mxGeometry x="170" y="610" width="450" height="147" as="geometry" />
        </mxCell>
        <mxCell id="vX_HHmugAZJZpFW1pDLi-37" value="" style="html=1;verticalAlign=bottom;endArrow=block;curved=0;rounded=0;" edge="1" parent="1">
          <mxGeometry width="80" relative="1" as="geometry">
            <mxPoint x="535" y="455" as="sourcePoint" />
            <mxPoint x="535.0019047619047" y="475" as="targetPoint" />
            <Array as="points">
              <mxPoint x="560" y="455" />
              <mxPoint x="560" y="475" />
              <mxPoint x="539.74" y="475" />
            </Array>
          </mxGeometry>
        </mxCell>
        <mxCell id="vX_HHmugAZJZpFW1pDLi-38" value="Tạo&lt;div&gt;QR&lt;/div&gt;" style="edgeLabel;html=1;align=center;verticalAlign=middle;resizable=0;points=[];" vertex="1" connectable="0" parent="vX_HHmugAZJZpFW1pDLi-37">
          <mxGeometry x="0.0639" y="1" relative="1" as="geometry">
            <mxPoint x="14" y="-3" as="offset" />
          </mxGeometry>
        </mxCell>
        <mxCell id="vX_HHmugAZJZpFW1pDLi-39" value="" style="html=1;verticalAlign=bottom;endArrow=block;curved=0;rounded=0;" edge="1" parent="1">
          <mxGeometry width="80" relative="1" as="geometry">
            <mxPoint x="535" y="650" as="sourcePoint" />
            <mxPoint x="535.0019047619047" y="670" as="targetPoint" />
            <Array as="points">
              <mxPoint x="560" y="650" />
              <mxPoint x="560" y="670" />
              <mxPoint x="539.74" y="670" />
            </Array>
          </mxGeometry>
        </mxCell>
        <mxCell id="vX_HHmugAZJZpFW1pDLi-40" value="Kích hoạt&amp;nbsp;&lt;div&gt;hệ thống&amp;nbsp;&lt;/div&gt;&lt;div&gt;nhận diện&lt;/div&gt;" style="edgeLabel;html=1;align=center;verticalAlign=middle;resizable=0;points=[];" vertex="1" connectable="0" parent="vX_HHmugAZJZpFW1pDLi-39">
          <mxGeometry x="0.0639" y="1" relative="1" as="geometry">
            <mxPoint x="29" y="-3" as="offset" />
          </mxGeometry>
        </mxCell>
        <mxCell id="vX_HHmugAZJZpFW1pDLi-42" value="0" style="html=1;verticalAlign=bottom;endArrow=none;curved=0;rounded=0;startFill=1;startArrow=block;" edge="1" parent="1">
          <mxGeometry width="80" relative="1" as="geometry">
            <mxPoint x="225" y="680" as="sourcePoint" />
            <mxPoint x="525" y="680" as="targetPoint" />
          </mxGeometry>
        </mxCell>
        <mxCell id="vX_HHmugAZJZpFW1pDLi-43" value="Thông báo lỗi hệ thống nhận diện" style="edgeLabel;html=1;align=center;verticalAlign=middle;resizable=0;points=[];" vertex="1" connectable="0" parent="vX_HHmugAZJZpFW1pDLi-42">
          <mxGeometry x="-0.0458" y="1" relative="1" as="geometry">
            <mxPoint y="-7" as="offset" />
          </mxGeometry>
        </mxCell>
        <mxCell id="vX_HHmugAZJZpFW1pDLi-44" value="" style="html=1;verticalAlign=bottom;endArrow=none;dashed=1;endSize=8;curved=0;rounded=0;exitX=1.002;exitY=0.587;exitDx=0;exitDy=0;exitPerimeter=0;startFill=0;" edge="1" parent="1">
          <mxGeometry relative="1" as="geometry">
            <mxPoint x="620" y="700" as="sourcePoint" />
            <mxPoint x="169" y="701" as="targetPoint" />
          </mxGeometry>
        </mxCell>
        <mxCell id="vX_HHmugAZJZpFW1pDLi-46" value="0" style="html=1;verticalAlign=bottom;endArrow=none;curved=0;rounded=0;startFill=1;startArrow=block;" edge="1" parent="1">
          <mxGeometry width="80" relative="1" as="geometry">
            <mxPoint x="226" y="740" as="sourcePoint" />
            <mxPoint x="526" y="740" as="targetPoint" />
          </mxGeometry>
        </mxCell>
        <mxCell id="vX_HHmugAZJZpFW1pDLi-47" value="Hiển thị màn hình thành công" style="edgeLabel;html=1;align=center;verticalAlign=middle;resizable=0;points=[];" vertex="1" connectable="0" parent="vX_HHmugAZJZpFW1pDLi-46">
          <mxGeometry x="-0.0458" y="1" relative="1" as="geometry">
            <mxPoint y="-7" as="offset" />
          </mxGeometry>
        </mxCell>
        <mxCell id="vX_HHmugAZJZpFW1pDLi-48" value="&lt;font style=&quot;font-size: 11px;&quot;&gt;Điểm danh bằng khuôn mặt&lt;/font&gt;" style="text;html=1;align=center;verticalAlign=middle;resizable=0;points=[];autosize=1;strokeColor=none;fillColor=none;" vertex="1" parent="1">
          <mxGeometry x="226" y="610" width="160" height="30" as="geometry" />
        </mxCell>
        <mxCell id="vX_HHmugAZJZpFW1pDLi-49" value="&lt;b&gt;alt&lt;/b&gt;" style="shape=umlFrame;whiteSpace=wrap;html=1;pointerEvents=0;" vertex="1" parent="1">
          <mxGeometry x="170" y="790" width="450" height="100" as="geometry" />
        </mxCell>
        <mxCell id="vX_HHmugAZJZpFW1pDLi-50" value="" style="html=1;points=[[0,0,0,0,5],[0,1,0,0,-5],[1,0,0,0,5],[1,1,0,0,-5]];perimeter=orthogonalPerimeter;outlineConnect=0;targetShapes=umlLifeline;portConstraint=eastwest;newEdgeStyle={&quot;curved&quot;:0,&quot;rounded&quot;:0};" vertex="1" parent="1">
          <mxGeometry x="525" y="830" width="10" height="30" as="geometry" />
        </mxCell>
        <mxCell id="vX_HHmugAZJZpFW1pDLi-51" value="0" style="html=1;verticalAlign=bottom;endArrow=none;curved=0;rounded=0;startFill=1;startArrow=block;" edge="1" parent="1">
          <mxGeometry width="80" relative="1" as="geometry">
            <mxPoint x="225" y="860" as="sourcePoint" />
            <mxPoint x="525" y="860" as="targetPoint" />
          </mxGeometry>
        </mxCell>
        <mxCell id="vX_HHmugAZJZpFW1pDLi-52" value="Hiển thị màn hình thành công" style="edgeLabel;html=1;align=center;verticalAlign=middle;resizable=0;points=[];" vertex="1" connectable="0" parent="vX_HHmugAZJZpFW1pDLi-51">
          <mxGeometry x="-0.0458" y="1" relative="1" as="geometry">
            <mxPoint y="-7" as="offset" />
          </mxGeometry>
        </mxCell>
        <mxCell id="vX_HHmugAZJZpFW1pDLi-53" value="&lt;span style=&quot;font-size: 11px;&quot;&gt;Điểm danh thủ công&lt;/span&gt;" style="text;html=1;align=center;verticalAlign=middle;resizable=0;points=[];autosize=1;strokeColor=none;fillColor=none;" vertex="1" parent="1">
          <mxGeometry x="227" y="790" width="120" height="30" as="geometry" />
        </mxCell>
        <mxCell id="vX_HHmugAZJZpFW1pDLi-55" value="0" style="html=1;verticalAlign=bottom;endArrow=none;curved=0;rounded=0;startFill=1;startArrow=block;" edge="1" parent="1">
          <mxGeometry width="80" relative="1" as="geometry">
            <mxPoint x="225" y="940" as="sourcePoint" />
            <mxPoint x="525" y="940" as="targetPoint" />
          </mxGeometry>
        </mxCell>
        <mxCell id="vX_HHmugAZJZpFW1pDLi-56" value="Hiển thị danh sách sinh viên" style="edgeLabel;html=1;align=center;verticalAlign=middle;resizable=0;points=[];" vertex="1" connectable="0" parent="vX_HHmugAZJZpFW1pDLi-55">
          <mxGeometry x="-0.0458" y="1" relative="1" as="geometry">
            <mxPoint y="-7" as="offset" />
          </mxGeometry>
        </mxCell>
      </root>
    </mxGraphModel>
  </diagram>
</mxfile>
